<svg width="100" height="100" viewBox="0 0 100 100" fill="none" xmlns="http://www.w3.org/2000/svg">
<rect width="100" height="100" fill="white"/>
<g filter="url(#filter0_d_3_4)">
<rect x="16" y="16" width="68" height="68" rx="10" fill="white"/>
</g>
<path d="M75.5398 41.4489H64.9148C64.6117 39.7064 64.053 38.1629 63.2386 36.8182C62.4242 35.4545 61.411 34.2992 60.1989 33.3523C58.9867 32.4053 57.6042 31.6951 56.0511 31.2216C54.517 30.7292 52.8598 30.483 51.0795 30.483C47.9167 30.483 45.1136 31.2784 42.6705 32.8693C40.2273 34.4413 38.3144 36.7519 36.9318 39.8011C35.5492 42.8314 34.858 46.5341 34.858 50.9091C34.858 55.3598 35.5492 59.1098 36.9318 62.1591C38.3333 65.1894 40.2462 67.4811 42.6705 69.0341C45.1136 70.5682 47.9072 71.3352 51.0511 71.3352C52.7936 71.3352 54.4223 71.108 55.9375 70.6534C57.4716 70.1799 58.8447 69.4886 60.0568 68.5795C61.2879 67.6705 62.3201 66.553 63.1534 65.2273C64.0057 63.9015 64.5928 62.3864 64.9148 60.6818L75.5398 60.7386C75.142 63.5038 74.2803 66.0985 72.9545 68.5227C71.6477 70.947 69.9337 73.0871 67.8125 74.9432C65.6913 76.7803 63.2102 78.2197 60.3693 79.2614C57.5284 80.2841 54.375 80.7955 50.9091 80.7955C45.7955 80.7955 41.2311 79.6117 37.2159 77.2443C33.2008 74.8769 30.0379 71.4583 27.7273 66.9886C25.4167 62.5189 24.2614 57.1591 24.2614 50.9091C24.2614 44.6402 25.4261 39.2803 27.7557 34.8295C30.0852 30.3598 33.2576 26.9413 37.2727 24.5739C41.2879 22.2064 45.8333 21.0227 50.9091 21.0227C54.1477 21.0227 57.1591 21.4773 59.9432 22.3864C62.7273 23.2955 65.2083 24.6307 67.3864 26.392C69.5644 28.1345 71.3542 30.2746 72.7557 32.8125C74.1761 35.3314 75.1042 38.2102 75.5398 41.4489Z" fill="#FF0000"/>
<defs>
<filter id="filter0_d_3_4" x="6" y="6" width="88" height="88" filterUnits="userSpaceOnUse" color-interpolation-filters="sRGB">
<feFlood flood-opacity="0" result="BackgroundImageFix"/>
<feColorMatrix in="SourceAlpha" type="matrix" values="0 0 0 0 0 0 0 0 0 0 0 0 0 0 0 0 0 0 127 0" result="hardAlpha"/>
<feMorphology radius="2" operator="dilate" in="SourceAlpha" result="effect1_dropShadow_3_4"/>
<feOffset/>
<feGaussianBlur stdDeviation="4"/>
<feComposite in2="hardAlpha" operator="out"/>
<feColorMatrix type="matrix" values="0 0 0 0 0 0 0 0 0 0 0 0 0 0 0 0 0 0 0.25 0"/>
<feBlend mode="normal" in2="BackgroundImageFix" result="effect1_dropShadow_3_4"/>
<feBlend mode="normal" in="SourceGraphic" in2="effect1_dropShadow_3_4" result="shape"/>
</filter>
</defs>
</svg>
